<svg width="16" height="16" viewBox="0 0 16 16" fill="none" xmlns="http://www.w3.org/2000/svg">
<path d="M8.2 3C5.34433 3 3 5.16943 3 7.85662C3 9.28826 3.68033 10.5603 4.73333 11.4463V13.3995L6.65647 12.4624C7.14527 12.606 7.6566 12.7132 8.2 12.7132C11.0557 12.7132 13.4 10.5438 13.4 7.85662C13.4 5.16943 11.0557 3 8.2 3ZM8.2 3.84463C10.6089 3.84463 12.5333 5.64622 12.5333 7.85662C12.5333 10.067 10.6089 11.8686 8.2 11.8686C7.68217 11.8686 7.18773 11.7727 6.72407 11.6177L6.54813 11.565L5.6 12.027V11.0768L5.4375 10.9446C4.47593 10.206 3.86667 9.09906 3.86667 7.85662C3.86667 5.64622 5.7911 3.84463 8.2 3.84463ZM7.7125 6.52379L5.09907 9.21605L7.44167 7.9491L8.6875 9.25574L11.2741 6.52337L8.9852 7.77764L7.7125 6.52379Z" fill="white"/>
</svg>
