<svg width="16" height="16" viewBox="0 0 16 16" fill="none" xmlns="http://www.w3.org/2000/svg">
<path d="M11.4425 6.67917C11.4425 6.755 11.4425 6.83083 11.4425 6.89583C11.4425 9.13833 9.73083 11.7275 6.61083 11.7275C5.64667 11.7275 4.75833 11.4458 4 10.9692C4.13 10.98 4.27083 10.9908 4.40083 10.9908C5.19167 10.9908 5.92833 10.72 6.51333 10.265C5.76583 10.2542 5.1375 9.75583 4.93167 9.08417C5.04 9.10583 5.1375 9.11667 5.25667 9.11667C5.40833 9.11667 5.56 9.095 5.70083 9.05167C4.92083 8.9 4.33583 8.2175 4.33583 7.39417C4.33583 7.38333 4.33583 7.38333 4.33583 7.3725C4.56333 7.5025 4.82333 7.57833 5.105 7.58917C4.65 7.28583 4.34667 6.76583 4.34667 6.17C4.34667 5.85583 4.43333 5.56333 4.57417 5.31417C5.40833 6.34333 6.665 7.015 8.07333 7.09083C8.04083 6.97167 8.03 6.83083 8.03 6.70083C8.03 5.75833 8.78833 5 9.73083 5C10.2183 5 10.6625 5.20583 10.9658 5.53083C11.3558 5.455 11.7133 5.31417 12.0492 5.11917C11.9192 5.52 11.6483 5.845 11.3017 6.06167C11.6483 6.01833 11.9733 5.93167 12.2767 5.79083C12.06 6.1375 11.7783 6.44083 11.4425 6.67917Z" fill="#FAFBFC"/>
</svg>
