<svg width="16" height="16" viewBox="0 0 16 16" fill="none" xmlns="http://www.w3.org/2000/svg">
<path d="M9.98533 8.772C9.85533 8.72867 9.292 8.42533 9.162 8.382C9.032 8.33867 8.98867 8.33867 8.902 8.42533C8.78276 8.59273 8.65247 8.75197 8.512 8.902C8.42533 8.98867 8.382 8.98867 8.252 8.94533C7.88974 8.82339 7.56256 8.61519 7.29867 8.33867C7.03001 8.1096 6.80913 7.82982 6.64867 7.51533C6.562 7.38533 6.64867 7.342 6.692 7.25533C6.76008 7.19199 6.81848 7.11899 6.86533 7.03867C6.90867 6.952 6.952 6.90867 6.99533 6.822C7.03867 6.73533 6.99533 6.692 6.99533 6.60533C6.99533 6.51867 6.73533 5.95533 6.60533 5.73867C6.47533 5.522 6.432 5.522 6.34533 5.522H6.12867C6.01512 5.52706 5.9073 5.57327 5.82533 5.652C5.68287 5.77491 5.56994 5.92833 5.49492 6.10088C5.4199 6.27342 5.38472 6.46066 5.392 6.64867C5.43171 7.09166 5.59708 7.51411 5.86867 7.86633C6.36091 8.6462 7.07032 9.26524 7.90967 9.64733C8.213 9.77733 8.42967 9.82067 8.603 9.90733C8.84097 9.98366 9.09438 9.99857 9.33967 9.95067C9.67037 9.86237 9.9609 9.66359 10.163 9.38733C10.2178 9.20446 10.2469 9.01488 10.2497 8.824C10.1611 8.82475 10.0732 8.81009 9.98967 8.78067L9.98533 8.772ZM7.81867 11.7187C7.0988 11.7273 6.39118 11.532 5.77767 11.1553L5.64767 11.0687L4.12667 11.4587L4.521 9.98533L4.43433 9.85533C4.03821 9.21631 3.82813 8.4795 3.82767 7.72767C3.82681 6.9371 4.06051 6.16404 4.4992 5.50635C4.93788 4.84866 5.56182 4.33589 6.29205 4.03296C7.02228 3.73002 7.82596 3.65054 8.60139 3.80456C9.37681 3.95858 10.0891 4.33919 10.6481 4.89821C11.2071 5.45723 11.5877 6.16952 11.7418 6.94495C11.8958 7.72037 11.8163 8.52406 11.5134 9.25428C11.2104 9.98451 10.6977 10.6085 10.04 11.0471C9.38229 11.4858 8.60924 11.7195 7.81867 11.7187ZM11.203 4.38667C10.2931 3.50961 9.08237 3.01353 7.81867 3C6.55447 3 5.34205 3.5022 4.44812 4.39612C3.5542 5.29005 3.052 6.50247 3.052 7.76667C3.05179 8.60629 3.27621 9.43068 3.702 10.1543L3 12.6373L5.561 11.9873C6.26621 12.3714 7.05914 12.5655 7.862 12.5507C8.48797 12.5507 9.1078 12.4274 9.68612 12.1878C10.2644 11.9483 10.7899 11.5972 11.2325 11.1545C11.6752 10.7119 12.0263 10.1864 12.2658 9.60812C12.5054 9.02981 12.6287 8.40997 12.6287 7.784C12.598 6.51461 12.0938 5.29153 11.203 4.38667Z" fill="#FAFBFC"/>
</svg>
